<svg xmlns="http://www.w3.org/2000/svg" xmlns:xlink="http://www.w3.org/1999/xlink" width="40" zoomAndPan="magnify" viewBox="0 0 30 30.000001" height="40" preserveAspectRatio="xMidYMid meet" version="1.0"><defs><clipPath id="id1"><path d="M 3.386719 6.132812 L 26.613281 6.132812 L 26.613281 22.828125 L 3.386719 22.828125 Z M 3.386719 6.132812 " clip-rule="nonzero"/></clipPath><clipPath id="id2"><path d="M 3.386719 9 L 26.613281 9 L 26.613281 13 L 3.386719 13 Z M 3.386719 9 " clip-rule="nonzero"/></clipPath></defs><g clip-path="url(#id1)"><path fill="rgb(21.958923%, 71.369934%, 100%)" d="M 5.972656 6.132812 C 4.550781 6.132812 3.394531 7.285156 3.394531 8.703125 L 3.394531 20.257812 C 3.394531 21.675781 4.550781 22.828125 5.972656 22.828125 L 24.027344 22.828125 C 25.449219 22.828125 26.605469 21.675781 26.605469 20.257812 L 26.605469 8.703125 C 26.605469 8.703125 26.605469 6.132812 24.027344 6.132812 Z M 5.972656 6.132812 " fill-opacity="1" fill-rule="nonzero"/></g><g clip-path="url(#id2)"><path fill="rgb(16.079712%, 18.429565%, 19.999695%)" d="M 3.394531 9.34375 L 26.605469 9.34375 L 26.605469 12.554688 L 3.394531 12.554688 Z M 3.394531 9.34375 " fill-opacity="1" fill-rule="nonzero"/></g><path fill="rgb(95.689392%, 96.859741%, 97.648621%)" d="M 5.972656 15.121094 L 24.027344 15.121094 L 24.027344 18.976562 L 5.972656 18.976562 Z M 5.972656 15.121094 " fill-opacity="1" fill-rule="nonzero"/><path fill="rgb(53.329468%, 59.999084%, 65.098572%)" d="M 15.644531 18.332031 C 14.546875 18.332031 14.136719 17.554688 14.054688 17.175781 C 13.699219 17.203125 13.355469 17.371094 12.890625 17.667969 C 12.394531 17.980469 11.835938 18.332031 11.132812 18.332031 C 10.359375 18.332031 9.890625 17.898438 9.84375 17.046875 C 9.839844 17.011719 9.867188 16.929688 9.855469 16.929688 C 8.660156 16.929688 7.792969 18.058594 7.785156 18.070312 C 7.65625 18.242188 7.460938 18.332031 7.265625 18.332031 C 7.132812 18.332031 6.996094 18.292969 6.882812 18.207031 C 6.597656 18 6.535156 17.597656 6.746094 17.3125 C 6.792969 17.242188 7.980469 15.765625 9.84375 15.765625 C 11.089844 15.765625 11.164062 16.648438 11.183594 16.976562 L 11.1875 17.046875 C 11.5 17.023438 11.824219 16.820312 12.199219 16.582031 C 12.820312 16.191406 13.585938 15.703125 14.617188 15.964844 C 15.179688 16.109375 15.265625 16.625 15.300781 16.824219 C 15.308594 16.871094 15.320312 16.945312 15.332031 16.96875 C 15.335938 16.96875 15.425781 17.027344 15.703125 17.050781 C 16.230469 17.097656 16.8125 16.871094 17.425781 16.632812 C 18.0625 16.382812 18.722656 16.125 19.433594 16.125 C 21.617188 16.125 22.507812 17.175781 22.601562 17.296875 C 22.820312 17.574219 22.769531 17.976562 22.488281 18.195312 C 22.378906 18.285156 22.246094 18.328125 22.113281 18.332031 C 21.914062 18.339844 21.714844 18.253906 21.585938 18.085938 C 21.570312 18.070312 20.984375 17.410156 19.433594 17.410156 C 18.96875 17.410156 18.449219 17.613281 17.898438 17.828125 C 17.246094 18.082031 16.328125 18.332031 15.644531 18.332031 Z M 15.644531 18.332031 " fill-opacity="1" fill-rule="nonzero"/></svg>