<?xml version="1.0" encoding="UTF-8" standalone="no"?>
<svg
   xmlns:dc="http://purl.org/dc/elements/1.1/"
   xmlns:cc="http://creativecommons.org/ns#"
   xmlns:rdf="http://www.w3.org/1999/02/22-rdf-syntax-ns#"
   xmlns:svg="http://www.w3.org/2000/svg"
   xmlns="http://www.w3.org/2000/svg"
   xmlns:sodipodi="http://sodipodi.sourceforge.net/DTD/sodipodi-0.dtd"
   xmlns:inkscape="http://www.inkscape.org/namespaces/inkscape"
   width="728"
   zoomAndPan="magnify"
   viewBox="0 0 546 146.25"
   height="195"
   preserveAspectRatio="xMidYMid meet"
   version="1.0"
   id="svg61"
   sodipodi:docname="trybe-wallet-logosvg.svg"
   inkscape:version="0.92.5 (2060ec1f9f, 2020-04-08)">
  <metadata
     id="metadata65">
    <rdf:RDF>
      <cc:Work
         rdf:about="">
        <dc:format>image/svg+xml</dc:format>
        <dc:type
           rdf:resource="http://purl.org/dc/dcmitype/StillImage" />
        <dc:title></dc:title>
      </cc:Work>
    </rdf:RDF>
  </metadata>
  <sodipodi:namedview
     pagecolor="#ffffff"
     bordercolor="#666666"
     borderopacity="1"
     objecttolerance="10"
     gridtolerance="10"
     guidetolerance="10"
     inkscape:pageopacity="0"
     inkscape:pageshadow="2"
     inkscape:window-width="1920"
     inkscape:window-height="1000"
     id="namedview63"
     showgrid="false"
     inkscape:zoom="0.63324176"
     inkscape:cx="510.86334"
     inkscape:cy="97.5"
     inkscape:window-x="0"
     inkscape:window-y="44"
     inkscape:window-maximized="1"
     inkscape:current-layer="svg61" />
  <defs
     id="defs7">
    <g
       id="g2" />
    <clipPath
       id="id1">
      <path
         d="m 544.85937,444.03906 h 146.25 v 146.25 h -146.25 z m 0,0"
         id="path4"
         inkscape:connector-curvature="0"
         style="clip-rule:nonzero" />
    </clipPath>
  </defs>
  <g
     id="g65"
     transform="matrix(0.9541497,0,0,0.9541497,12.517129,3.3528013)">
    <g
       transform="translate(-133.9629,-444.03906)"
       id="g981">
      <g
         clip-path="url(#id1)"
         id="g11"
         style="fill:#1988ff;fill-opacity:1">
        <path
           style="fill:#1988ff;fill-opacity:1;fill-rule:nonzero"
           inkscape:connector-curvature="0"
           d="m 674.23437,477.78906 c 0,0 -97.64453,0 -114.48046,0 -4.9375,0 -9.32422,-0.98828 -9.32422,-5.625 l 123.80468,-5.625 v -11.25 c 0,-9.3164 -7.55859,-11.25 -16.875,-11.25 l -101.13281,16.875 c -9.00781,2.00391 -11.36719,5.82031 -11.36719,11.25 v 101.25 c 0,9.31641 7.5625,16.875 16.875,16.875 h 112.5 c 9.31641,0 16.875,-7.55859 16.875,-16.875 v -78.75 c 0,-9.3164 -7.55859,-16.875 -16.875,-16.875 z m -5.625,67.5 c -6.21093,0 -11.25,-5.03906 -11.25,-11.25 0,-6.21094 5.03907,-11.25 11.25,-11.25 6.21094,0 11.25,5.03906 11.25,11.25 0,6.21094 -5.03906,11.25 -11.25,11.25 z m 0,0"
           id="path9" />
      </g>
      <g
         id="g91"
         transform="translate(0,0.658029)"
         style="fill:#004c9e;fill-opacity:1">
        <g
           id="g19"
           style="fill:#004c9e;fill-opacity:1">
          <g
             id="g17"
             transform="translate(121.37503,587.70916)"
             style="fill:#004c9e;fill-opacity:1">
            <g
               id="g15"
               style="fill:#004c9e;fill-opacity:1">
              <path
                 id="path13"
                 d="m 104.16016,-84 -16.199222,55.800781 -22.5625,-54.839843 H 59.28125 L 37.199219,-28.078125 20.640625,-84 H 1.441406 L 27.839844,0 H 44.039062 L 62.28125,-47.039062 81,0 h 16.199219 l 25.921871,-84 z m 0,0"
                 inkscape:connector-curvature="0"
                 style="fill:#004c9e;fill-opacity:1" />
            </g>
          </g>
        </g>
        <g
           id="g27"
           style="fill:#004c9e;fill-opacity:1">
          <g
             id="g25"
             transform="translate(246.29509,587.70916)"
             style="fill:#004c9e;fill-opacity:1">
            <g
               id="g23"
               style="fill:#004c9e;fill-opacity:1">
              <path
                 id="path21"
                 d="m 61.199219,-64.800781 -1.800781,6.121093 c -5.636719,-4.921874 -12.957032,-7.921874 -21.359376,-7.921874 -19.4375,0 -33.960937,14.640624 -33.960937,34.203124 0,19.558594 14.523437,34.320313 33.960937,34.320313 8.28125,0 15.480469,-2.882813 21,-7.800781 L 60.601562,0 H 74.28125 v -64.800781 z m -21.71875,50.160156 c -10.199219,0 -17.640625,-7.679687 -17.640625,-17.757813 0,-10.203124 7.441406,-17.761718 17.640625,-17.761718 10.199219,0 17.640625,7.558594 17.640625,17.761718 0,10.199219 -7.441406,17.757813 -17.640625,17.757813 z m 0,0"
                 inkscape:connector-curvature="0"
                 style="fill:#004c9e;fill-opacity:1" />
            </g>
          </g>
        </g>
        <g
           id="g35"
           style="fill:#004c9e;fill-opacity:1">
          <g
             id="g33"
             transform="translate(329.09513,587.70916)"
             style="fill:#004c9e;fill-opacity:1">
            <g
               id="g31"
               style="fill:#004c9e;fill-opacity:1">
              <path
                 id="path29"
                 d="M 8.398438,0 H 25.921875 V -88.078125 H 8.398438 Z m 0,0"
                 inkscape:connector-curvature="0"
                 style="fill:#004c9e;fill-opacity:1" />
            </g>
          </g>
        </g>
        <g
           id="g43"
           style="fill:#004c9e;fill-opacity:1">
          <g
             id="g41"
             transform="translate(363.41514,587.70916)"
             style="fill:#004c9e;fill-opacity:1">
            <g
               id="g39"
               style="fill:#004c9e;fill-opacity:1">
              <path
                 id="path37"
                 d="M 8.398438,0 H 25.921875 V -88.078125 H 8.398438 Z m 0,0"
                 inkscape:connector-curvature="0"
                 style="fill:#004c9e;fill-opacity:1" />
            </g>
          </g>
        </g>
        <g
           id="g51"
           style="fill:#004c9e;fill-opacity:1">
          <g
             id="g49"
             transform="translate(397.73514,587.70916)"
             style="fill:#004c9e;fill-opacity:1">
            <g
               id="g47"
               style="fill:#004c9e;fill-opacity:1">
              <path
                 id="path45"
                 d="m 71.28125,-32.519531 c 0,-18.71875 -13.679688,-34.082031 -33.601562,-34.082031 -19.199219,0 -33.601563,14.761718 -33.601563,34.203124 0,19.4375 14.523437,34.320313 33.601563,34.320313 15.121093,0 27.480468,-9 32.160156,-23.160156 H 51.480469 c -2.640625,4.679687 -7.679688,7.558593 -13.800781,7.558593 -8.519532,0 -14.28125,-4.921874 -15.839844,-13.800781 h 49.082031 c 0.238281,-1.679687 0.359375,-3.359375 0.359375,-5.039062 z M 37.679688,-51.601562 c 7.921874,0 13.558593,4.320312 16.082031,12.242187 H 22.320312 c 2.039063,-7.679687 7.558594,-12.242187 15.359376,-12.242187 z m 0,0"
                 inkscape:connector-curvature="0"
                 style="fill:#004c9e;fill-opacity:1" />
            </g>
          </g>
        </g>
        <g
           id="g59"
           style="fill:#004c9e;fill-opacity:1">
          <g
             id="g57"
             transform="translate(473.09517,587.70916)"
             style="fill:#004c9e;fill-opacity:1">
            <g
               id="g55"
               style="fill:#004c9e;fill-opacity:1">
              <path
                 id="path53"
                 d="M 40.078125,-15.601562 C 33.601562,-15.601562 30,-19.199219 30,-25.441406 V -50.640625 H 47.640625 V -64.800781 H 29.761719 V -81.601562 H 26.398438 L 0.839844,-54.480469 v 3.839844 h 11.640625 v 27.601563 C 12.480469,-8.761719 21.238281,0 35.519531,0 H 48 v -15.601562 z m 0,0"
                 inkscape:connector-curvature="0"
                 style="fill:#004c9e;fill-opacity:1" />
            </g>
          </g>
        </g>
      </g>
    </g>
  </g>
</svg>
