<svg
  xmlns="http://www.w3.org/2000/svg"
  width="728"
  height="195"
  preserveAspectRatio="xMidYMid meet"
  version="1"
  viewBox="0 0 546 146.25"
  zoomAndPan="magnify"
>
  <defs>
    <clipPath id="id1">
      <path
        d="M544.86 444.04h146.25v146.25H544.86zm0 0"
        clipRule="nonzero"
      />
    </clipPath>
  </defs>
  <g transform="matrix(.95415 0 0 .95415 12.517 3.353)">
    <g fillOpacity="1" transform="translate(-133.963 -444.04)">
      <g fill="#1988ff" clipPath="url(#id1)">
        <path
          fill="#1988ff"
          fillOpacity="1"
          fillRule="nonzero"
          d="M674.234 477.79h-114.48c-4.938 0-9.324-.99-9.324-5.626l123.804-5.625v-11.25c0-9.316-7.558-11.25-16.875-11.25l-101.132 16.875c-9.008 2.004-11.368 5.82-11.368 11.25v101.25c0 9.316 7.563 16.875 16.875 16.875h112.5c9.317 0 16.875-7.559 16.875-16.875v-78.75c0-9.316-7.558-16.875-16.875-16.875zm-5.625 67.5c-6.21 0-11.25-5.04-11.25-11.25 0-6.212 5.04-11.25 11.25-11.25 6.211 0 11.25 5.038 11.25 11.25 0 6.21-5.039 11.25-11.25 11.25zm0 0"
        />
      </g>
      <g fill="#004c9e" transform="translate(0 .658)">
        <g>
          <g
            fill="#004c9e"
            fillOpacity="1"
            transform="translate(121.375 587.71)"
          >
            <g fill="#004c9e" fillOpacity="1">
              <path
                fill="#004c9e"
                fillOpacity="1"
                d="M104.16-84l-16.2 55.8-22.562-54.84h-6.117L37.2-28.077 20.641-84H1.44L27.84 0h16.2L62.28-47.04 81 0h16.2l25.921-84zm0 0"
              />
            </g>
          </g>
        </g>
        <g>
          <g
            fill="#004c9e"
            fillOpacity="1"
            transform="translate(246.295 587.71)"
          >
            <g fill="#004c9e" fillOpacity="1">
              <path
                fill="#004c9e"
                fillOpacity="1"
                d="M61.2-64.8l-1.802 6.12c-5.636-4.922-12.957-7.922-21.359-7.922-19.437 0-33.96 14.641-33.96 34.204 0 19.558 14.523 34.32 33.96 34.32 8.281 0 15.48-2.883 21-7.8L60.602 0h13.68v-64.8zM39.48-14.64c-10.199 0-17.64-7.68-17.64-17.758 0-10.204 7.441-17.762 17.64-17.762 10.2 0 17.641 7.558 17.641 17.762 0 10.199-7.441 17.757-17.64 17.757zm0 0"
              />
            </g>
          </g>
        </g>
        <g>
          <g
            fill="#004c9e"
            fillOpacity="1"
            transform="translate(329.095 587.71)"
          >
            <g fill="#004c9e" fillOpacity="1">
              <path
                fill="#004c9e"
                fillOpacity="1"
                d="M8.398 0h17.524v-88.078H8.398zm0 0"
              />
            </g>
          </g>
        </g>
        <g>
          <g
            fill="#004c9e"
            fillOpacity="1"
            transform="translate(363.415 587.71)"
          >
            <g fill="#004c9e" fillOpacity="1">
              <path
                fill="#004c9e"
                fillOpacity="1"
                d="M8.398 0h17.524v-88.078H8.398zm0 0"
              />
            </g>
          </g>
        </g>
        <g>
          <g
            fill="#004c9e"
            fillOpacity="1"
            transform="translate(397.735 587.71)"
          >
            <g fill="#004c9e" fillOpacity="1">
              <path
                fill="#004c9e"
                fillOpacity="1"
                d="M71.281-32.52c0-18.718-13.68-34.082-33.601-34.082-19.2 0-33.602 14.762-33.602 34.204 0 19.437 14.524 34.32 33.602 34.32 15.12 0 27.48-9 32.16-23.16H51.48c-2.64 4.68-7.68 7.558-13.8 7.558-8.52 0-14.282-4.922-15.84-13.8h49.082c.238-1.68.36-3.36.36-5.04zM37.68-51.602c7.922 0 13.558 4.32 16.082 12.243H22.32c2.04-7.68 7.559-12.243 15.36-12.243zm0 0"
              />
            </g>
          </g>
        </g>
        <g>
          <g
            fill="#004c9e"
            fillOpacity="1"
            transform="translate(473.095 587.71)"
          >
            <g fill="#004c9e" fillOpacity="1">
              <path
                fill="#004c9e"
                fillOpacity="1"
                d="M40.078-15.602c-6.476 0-10.078-3.597-10.078-9.84V-50.64h17.64V-64.8H29.763v-16.8h-3.364L.84-54.482v3.84h11.64v27.602C12.48-8.762 21.238 0 35.52 0H48v-15.602zm0 0"
              />
            </g>
          </g>
        </g>
      </g>
    </g>
  </g>
</svg>
